<?xml version="1.0" encoding="utf-8"?>
<!-- Svg Vector Icons : http://www.onlinewebfonts.com/icon -->
<!DOCTYPE svg PUBLIC "-//W3C//DTD SVG 1.1//EN" "http://www.w3.org/Graphics/SVG/1.1/DTD/svg11.dtd">
<svg version="1.1" xmlns="http://www.w3.org/2000/svg" xmlns:xlink="http://www.w3.org/1999/xlink" x="0px" y="0px" viewBox="0 0 1000 1000" enable-background="new 0 0 1000 1000" xml:space="preserve">
<metadata> Svg Vector Icons : http://www.onlinewebfonts.com/icon </metadata>
<g><path d="M500,10.4c-9.8,0-19.4,2.3-28.1,7.3c-0.3,0.1-0.5,0.3-0.6,0.6c0,0-112.8,67.3-225.7,136.4c-56.5,34.5-112.8,69.5-155.4,96.6c-21.3,13.6-39.2,24.8-52,33.6c-6.4,4.4-11.3,8.5-15.3,11.6c-2,1.6-3.7,3.1-5.5,4.9c-0.9,0.9-1.8,1.9-3.1,3.7c-1.3,1.7-3.8,3.3-4.3,11c-0.4,7.4,1.3,10.1,2.4,12.2c1.1,2.2,2.6,3.4,3.7,4.9c2.2,2.9,4.5,6.1,7.3,9.2c5.8,6.2,13.5,13.4,22.6,22c0.8,0.8,2.2,1.7,3.1,2.4v178c-11.4,6.8-19,19.4-19,33.6c0,4.7,0.9,9.3,2.4,13.5c-13.2,10.7-22,26.6-22,44.7c0,23.1,12.2,42.6,22.6,59.9c10.4,17.3,20.8,30.6,20.8,30.6c-0.2,8.4,6.5,15.4,15,15.6c8.4,0.2,15.4-6.5,15.6-15c0,0,10.3-13.4,20.8-30.6c10.5-17.2,22.6-37.3,22.6-60.6c0-18.1-8.8-34-22-44.7c1.5-4.2,2.4-8.7,2.4-13.5c0-14-7.3-26.1-18.4-33V404.3c7.7,6.9,14,12.6,22,19.6c47,41,91.9,78.9,94.2,80.7v9.2c-7.3,0.7-9.1-1.5-18.4,3.1c-20.5,10.1-40.4,36.2-40.4,77.7c0,44,31,79.6,71.6,89.9c26.4,68.4,59.1,141.3,102.8,199.4c45.5,60.5,104.3,105.8,178,105.8c73.7,0,132.5-45.3,178-105.8c43.7-58.1,76.4-131,102.8-199.4c40.8-10.2,71.6-45.8,71.6-89.9c0-42.6-19.5-68.5-40.4-78.3c-6.7-3.1-12.5-3.4-18.3-4.3v-11c6-5,45.9-37.9,91.7-77.1c24.6-21,49.2-42.2,67.9-59.3c9.3-8.6,17.4-15.8,23.2-22c2.9-3.1,5.1-5.6,7.3-8.6c1.1-1.5,1.9-3.3,3.1-5.5c1.2-2.2,3.5-4.7,3.1-12.2c-0.5-7.7-3-9.9-4.3-11.6c-1.3-1.7-2.1-2.2-3.1-3.1c-1.8-1.8-3.5-3.3-5.5-4.9c-4-3.2-8.9-7.2-15.3-11.6c-12.8-8.8-30.7-20.1-52-33.6c-42.6-27.1-98.9-62.1-155.4-96.6C641.5,85.7,528.8,18.3,528.8,18.3c-0.1-0.3-0.3-0.5-0.6-0.6C519.4,12.6,509.8,10.4,500,10.4z M500,50.7c2.7,0,5.4,1,8,2.4v-0.6c0,0,112.4,67.5,225.1,136.4c56.3,34.5,112.6,69.8,154.8,96.6c21.1,13.4,38.8,24.8,50.8,33c1.1,0.8,1.4,1.1,2.4,1.8c-4.4,4.3-8.9,8.2-15.3,14.1c-18,16.5-42.3,37.9-66.7,58.7c-32.4,27.6-46.6,39.4-64.8,54.4v-84.4c4.9-2.9,6.5-9.2,3.7-14.1c-2.9-4.9-9.2-6.5-14.1-3.7c0,0-108.7-61.2-283.8-61.2c-175.1,0-283.8,61.2-283.8,61.2c-4.9-2.9-11.2-1.2-14.1,3.7c-2.9,4.9-1.2,11.2,3.7,14.1v87.5c-17-14.5-33.2-28.3-66.7-57.5c-18.6-16.2-36.3-31.7-52-45.9c2.2-2.5,1.9-6.4-0.6-8.6c-2.5-2.2-6.4-1.9-8.6,0.6c-1.4-1.3-3-3.1-4.3-4.3c-6.3-5.9-10.4-10.3-14.7-14.7c1-0.7,1.3-1.1,2.4-1.8c12-8.3,29.7-19.6,50.8-33c42.2-26.9,98.4-62.2,154.8-96.6C379.7,120,492.1,52.6,492.1,52.6v0.6C494.6,51.7,497.3,50.7,500,50.7z M500,324.8c153.5,0,240.5,44.9,253.8,52v77.7c-30.8-9.7-113.5-33-253.8-33c-140.3,0-223,23.4-253.8,33v-77.7C259.5,369.6,346.5,324.8,500,324.8z M500,461.8c133.8,0,223.3,24.3,253.2,33.6c-1,0.3-1.6,1.4-1.2,2.4s1.4,1.6,2.4,1.2l0,0v30v23.2l22.6-3.7c0,0,9.3-1.5,17.7,2.4c8.5,4,18.3,11,18.3,43.4c0,29.1-21.5,51.6-48.9,54.4l-11.6,1.2l-4.3,11.6c-26.3,69.2-60,143-101.5,198.2c-41.5,55.2-89.2,90.5-146.8,90.5c-57.6,0-105.3-35.3-146.8-90.5c-41.5-55.2-74.6-129-100.9-198.2l-4.3-11.6l-12.2-1.2c-27.5-2.8-48.9-25.3-48.9-54.4c0-30.9,9.5-37.8,18.3-42.2c8.9-4.4,18.4-3.7,18.4-3.7l22,2.4v-22v-33.6C273.7,486.5,363.8,461.8,500,461.8z M69.4,617.7c11.2,0,19.6,8.5,19.6,19c0,5.6-7.4,25.4-16.5,40.4c-1.5,2.5-1.6,2-3.1,4.3c-1.5-2.4-1.5-2.3-3.1-4.9c-9.1-15.2-16.5-34.9-16.5-39.8C49.8,626.2,58.2,617.7,69.4,617.7z"/></g>
</svg>